<svg xmlns="http://www.w3.org/2000/svg" viewBox="0 0 603.22 72.98"><defs><style>.a{fill:#fff;}</style></defs><path class="a" d="M0,1.52H6.18L26.37,51.83,46.87,1.52h5.87V57.39H48.28V9.5q-.39.71-2.51,6-.93,2.26-2.34,5.75t-3.49,8.53q-2.07,5-4.89,11.85T28.56,57.39H24L4.46,9.81V57.39H0Z"/><path class="a" d="M62.71,67.64a11.64,11.64,0,0,0,2,.62,10,10,0,0,0,2.23.24,7.49,7.49,0,0,0,2.35-.32A4.22,4.22,0,0,0,71,67.05a9.45,9.45,0,0,0,1.45-2.12c.44-.87,1-2,1.52-3.34l1.88-4.79L58.57,17.09h5.24L78.44,51.56,91.51,17.09H96.6L78.29,62.71q-.95,2.26-1.92,4.11A14.45,14.45,0,0,1,74.18,70a7.92,7.92,0,0,1-2.86,2,10.45,10.45,0,0,1-3.91.67,19.35,19.35,0,0,1-3-.2,16.85,16.85,0,0,1-2.78-.74Z"/><path class="a" d="M102.23,0h19.85a33.47,33.47,0,0,1,10.73,1.45,17,17,0,0,1,6.63,3.86,13.15,13.15,0,0,1,3.37,5.58,22.49,22.49,0,0,1,1,6.63,25.31,25.31,0,0,1-1,7.07,13.74,13.74,0,0,1-3.41,5.91,17,17,0,0,1-6.63,4A31.86,31.86,0,0,1,122.24,36H111.79V57.39h-9.56ZM122,27.89a21.28,21.28,0,0,0,6.06-.72,9,9,0,0,0,3.74-2.05,7,7,0,0,0,1.89-3.18,15.27,15.27,0,0,0,.52-4.18,14.14,14.14,0,0,0-.56-4.22,6.33,6.33,0,0,0-2-3,9.68,9.68,0,0,0-3.78-1.85,23.25,23.25,0,0,0-6-.64H111.79V27.89Z"/><path class="a" d="M158.83,15.59v6.19a15.74,15.74,0,0,1,5.23-5.06A12.74,12.74,0,0,1,170.57,15c.91,0,1.67,0,2.29.08a17.9,17.9,0,0,1,1.81.24l-1,8.36a10.1,10.1,0,0,0-1.93-.32c-.69,0-1.42-.08-2.17-.08a11.22,11.22,0,0,0-4.5.84,10.1,10.1,0,0,0-3.25,2.21,9.2,9.2,0,0,0-2,3.1,9.31,9.31,0,0,0-.69,3.49V57.39H150V15.59Z"/><path class="a" d="M216,45a15.92,15.92,0,0,1-5.54,10.09q-4.42,3.57-12.7,3.57-10,0-15.15-5.74t-5.19-16.2a28.43,28.43,0,0,1,1.49-9.56,19.84,19.84,0,0,1,4.18-7,17.93,17.93,0,0,1,6.43-4.34,22.13,22.13,0,0,1,8.24-1.48,21.53,21.53,0,0,1,8.36,1.48A15.83,15.83,0,0,1,211.94,20a17.4,17.4,0,0,1,3.45,6.43,28.82,28.82,0,0,1,1.13,8.32v4h-30A15.36,15.36,0,0,0,189.43,48q2.73,3.54,8.28,3.54,4.33,0,6.51-1.69A8.15,8.15,0,0,0,207.11,45ZM207.6,32.39c0-3.43-.81-6.13-2.42-8.12s-4.18-3-7.71-3q-5.07,0-7.72,3a13.5,13.5,0,0,0-3.05,8.08Z"/><path class="a" d="M224,15.59h8.93v5.79a18.14,18.14,0,0,1,5.9-5.26,15.84,15.84,0,0,1,7.68-1.81,17.88,17.88,0,0,1,7.72,1.56,15,15,0,0,1,5.5,4.46,19.88,19.88,0,0,1,3.3,7,35.12,35.12,0,0,1,1.08,9,31.19,31.19,0,0,1-1.28,9.2,21.19,21.19,0,0,1-3.66,7.08,16.05,16.05,0,0,1-5.75,4.5,18,18,0,0,1-7.63,1.56,17.72,17.72,0,0,1-6.59-1.28,15.21,15.21,0,0,1-6-4.74V73H224Zm9.09,21.62a22.14,22.14,0,0,0,.88,6.8,11.68,11.68,0,0,0,2.37,4.3,8.06,8.06,0,0,0,3.46,2.25,13.19,13.19,0,0,0,4.14.64,10.7,10.7,0,0,0,4.18-.81,8.55,8.55,0,0,0,3.37-2.57,12.42,12.42,0,0,0,2.25-4.58,24.92,24.92,0,0,0,.81-6.83,23.66,23.66,0,0,0-.85-6.87,13,13,0,0,0-2.25-4.5,7.82,7.82,0,0,0-3.25-2.45,10.38,10.38,0,0,0-3.86-.73,10.9,10.9,0,0,0-8.08,3.22q-3.18,3.21-3.17,10.12Z"/><path class="a" d="M296.81,51.92a19.44,19.44,0,0,1-5.71,4.66,16.76,16.76,0,0,1-8.2,1.85,19.32,19.32,0,0,1-5.54-.76,12.74,12.74,0,0,1-4.46-2.29,10.69,10.69,0,0,1-3-3.9,13.37,13.37,0,0,1-1.08-5.59,11.79,11.79,0,0,1,1.93-7,13.34,13.34,0,0,1,5-4.22,24.15,24.15,0,0,1,6.95-2.13,69.79,69.79,0,0,1,7.72-.76l6.19-.32V29.66c0-3.16-.77-5.35-2.29-6.55a9.38,9.38,0,0,0-6-1.81q-4.26,0-6.31,1.45a6.76,6.76,0,0,0-2.69,4.18L271,26q1.13-6.1,5.54-8.92t12.14-2.81a22.81,22.81,0,0,1,8.24,1.28,12.9,12.9,0,0,1,5.18,3.54,12.75,12.75,0,0,1,2.7,5.34,28.89,28.89,0,0,1,.76,6.8V57.39h-8.76Zm-6-14.06a36.48,36.48,0,0,0-6.63.88,11.35,11.35,0,0,0-3.9,1.65,4.81,4.81,0,0,0-1.81,2.33,9.1,9.1,0,0,0-.44,2.85,5.39,5.39,0,0,0,1.73,4.26,7.47,7.47,0,0,0,5.1,1.53c4,0,7-1,8.92-3a11.56,11.56,0,0,0,2.9-8.28V37.62Z"/><path class="a" d="M323.6,0V9.08h-9.49V0Zm-.16,15.59v41.8h-9.17V15.59Z"/><path class="a" d="M361.85,51.6A17.82,17.82,0,0,1,356,56.91a15.77,15.77,0,0,1-7.6,1.76,17.58,17.58,0,0,1-7.79-1.6,14.72,14.72,0,0,1-5.47-4.55,20.32,20.32,0,0,1-3.25-7,34.32,34.32,0,0,1-1.09-9A31.35,31.35,0,0,1,332,28a21.38,21.38,0,0,1,3.29-6.91,16.63,16.63,0,0,1,5.35-4.7,16.14,16.14,0,0,1,7.35-1.93,9.63,9.63,0,0,1,1.61,0l1.69.12a16.67,16.67,0,0,1,5.42,1.57,15.37,15.37,0,0,1,5,4.13V0h9.08V57.39h-8.92Zm-.08-16a22.45,22.45,0,0,0-.85-6.63,10.68,10.68,0,0,0-2.33-4.26,8.6,8.6,0,0,0-3.45-2.26,12.74,12.74,0,0,0-4.14-.68,9.31,9.31,0,0,0-7.84,3.62q-2.78,3.62-2.77,11a26.33,26.33,0,0,0,.76,6.83,12.51,12.51,0,0,0,2.17,4.58,8.37,8.37,0,0,0,3.26,2.57,9.88,9.88,0,0,0,4,.81,10.63,10.63,0,0,0,8.08-3.26q3.09-3.25,3.1-10.16Z"/><path class="a" d="M425.82,39.47a27,27,0,0,1-2.16,7.67,19.16,19.16,0,0,1-4.34,6.1,19.85,19.85,0,0,1-6.65,4.07,27.86,27.86,0,0,1-19.05-.39,20.75,20.75,0,0,1-7.75-5.6,26.21,26.21,0,0,1-5.05-9.15A40,40,0,0,1,379,29.61a38,38,0,0,1,2-12.71,27.3,27.3,0,0,1,5.28-9.24A22.24,22.24,0,0,1,394,2,23.42,23.42,0,0,1,403.44.11a26,26,0,0,1,8.76,1.33,17.93,17.93,0,0,1,6.22,3.72,18.77,18.77,0,0,1,4.11,5.67A36.9,36.9,0,0,1,425,18l-4.54,1a33.09,33.09,0,0,0-2.15-6.18,15,15,0,0,0-3.28-4.62,13.63,13.63,0,0,0-4.82-2.89,20,20,0,0,0-6.8-1,17.42,17.42,0,0,0-8.22,1.88,17.8,17.8,0,0,0-6.1,5.24,24.67,24.67,0,0,0-3.84,8A36.6,36.6,0,0,0,384,29.45a37.31,37.31,0,0,0,1.29,10.14A24.84,24.84,0,0,0,389,47.53a16.82,16.82,0,0,0,6.14,5.2,18.6,18.6,0,0,0,8.45,1.84,22.45,22.45,0,0,0,7.63-1.13,13.66,13.66,0,0,0,5.09-3.17,14.81,14.81,0,0,0,3.13-4.82,28.41,28.41,0,0,0,1.68-6Z"/><path class="a" d="M467.3,46.82a13.74,13.74,0,0,1-5,8.53q-4.07,3.28-11.58,3.29-8.68,0-13.49-5.59T432.4,37.67a29.48,29.48,0,0,1,1.37-9.39,19.55,19.55,0,0,1,3.84-6.85,16,16,0,0,1,5.79-4.18,18.5,18.5,0,0,1,7.31-1.41,18.81,18.81,0,0,1,8,1.53,14.34,14.34,0,0,1,5.36,4.14,16.79,16.79,0,0,1,3,6.22,30.89,30.89,0,0,1,.93,7.75v2.89H437a23.57,23.57,0,0,0,.86,6.46,15.29,15.29,0,0,0,2.58,5.24,12.23,12.23,0,0,0,4.31,3.52,13.11,13.11,0,0,0,5.94,1.29,19.65,19.65,0,0,0,5.17-.58,10,10,0,0,0,3.52-1.68,8.68,8.68,0,0,0,2.23-2.55,13.13,13.13,0,0,0,1.29-3.25Zm-4-12.36a24.09,24.09,0,0,0-.7-6,13.28,13.28,0,0,0-2.2-4.74,9.77,9.77,0,0,0-3.91-3.09,14,14,0,0,0-5.79-1.09,12.4,12.4,0,0,0-9.39,3.67q-3.52,3.69-4.22,11.27Z"/><path class="a" d="M476.13,17.09h4.54v6.57a21,21,0,0,1,7-6,17.61,17.61,0,0,1,7.94-1.84q6.88,0,10.17,3.83t3.29,10.88V57.39h-4.54V31.8q0-6.33-2.27-9.11c-1.51-1.86-3.91-2.78-7.2-2.78a15.36,15.36,0,0,0-5,.9,13.35,13.35,0,0,0-4.73,2.85,15.42,15.42,0,0,0-3.52,4.19,12.44,12.44,0,0,0-1.17,5.91V57.39h-4.54Z"/><path class="a" d="M520.09,20.85h-6.26V17.09h6.26V6h4.54V17.09h11.43v3.76H524.63V47.22a9.61,9.61,0,0,0,1.25,5c.84,1.38,2.3,2.08,4.39,2.08a16,16,0,0,0,3.44-.32,19.6,19.6,0,0,0,2.5-.7l.94,3.68a20.12,20.12,0,0,1-2.85.86,20.37,20.37,0,0,1-4.43.39,10.39,10.39,0,0,1-5.39-1.18A7.52,7.52,0,0,1,521.54,54a12.19,12.19,0,0,1-1.21-4.42c-.16-1.67-.24-3.41-.24-5.24Z"/><path class="a" d="M574.44,46.82a13.68,13.68,0,0,1-5,8.53q-4.08,3.28-11.58,3.29-8.7,0-13.5-5.59t-4.81-15.38a29.2,29.2,0,0,1,1.37-9.39,19.69,19.69,0,0,1,3.83-6.85,16,16,0,0,1,5.79-4.18,18.55,18.55,0,0,1,7.32-1.41,18.81,18.81,0,0,1,8,1.53,14.42,14.42,0,0,1,5.36,4.14,16.78,16.78,0,0,1,3,6.22,30.88,30.88,0,0,1,.94,7.75v2.89h-31a23.57,23.57,0,0,0,.86,6.46,15.49,15.49,0,0,0,2.59,5.24,12.2,12.2,0,0,0,4.3,3.52,13.13,13.13,0,0,0,6,1.29A19.63,19.63,0,0,0,563,54.3a10,10,0,0,0,3.52-1.68,8.68,8.68,0,0,0,2.23-2.55,13.13,13.13,0,0,0,1.29-3.25Zm-4-12.36a24.09,24.09,0,0,0-.7-6,13.44,13.44,0,0,0-2.19-4.74,9.84,9.84,0,0,0-3.91-3.09,14,14,0,0,0-5.79-1.09,12.37,12.37,0,0,0-9.39,3.67q-3.53,3.69-4.23,11.27Z"/><path class="a" d="M583.27,17.09h4.54v6.57a18.49,18.49,0,0,1,5.55-5.32A12.75,12.75,0,0,1,600,16.47c.58,0,1.11,0,1.61,0a14.54,14.54,0,0,1,1.6.2l-.55,4.3a16.53,16.53,0,0,0-2.58-.23,12.59,12.59,0,0,0-4.15.74,11.34,11.34,0,0,0-4,2.55,12.82,12.82,0,0,0-3,3.79,11.24,11.24,0,0,0-1.17,5.28V57.39h-4.54Z"/></svg>